<svg width="22" height="27" viewBox="0 0 22 27" fill="none" xmlns="http://www.w3.org/2000/svg">
<path d="M7.18668 10.6246H9.42398C10.5575 10.6246 11.2735 11.8082 10.7365 12.7609L3.0104 26.2142V14.6663H1.51887C0.683617 14.6663 0.0273438 14.0312 0.0273438 13.2228V1.67493C0.0273438 0.86658 0.683617 0.231445 1.51887 0.231445H9.66262C10.7365 0.231445 11.4525 1.29963 11.0348 2.25233L7.18668 10.6246Z" fill="white"/>
<path d="M18.7106 12.8517H20.2021C20.9578 12.8517 21.4351 13.6549 21.0771 14.3013L15.9264 23.4304V15.5943H14.932C14.3752 15.5943 13.9377 15.1633 13.9377 14.6148V6.7787C13.9377 6.23017 14.3752 5.79919 14.932 5.79919H20.3612C21.0771 5.79919 21.5544 6.52403 21.276 7.1705L18.7106 12.8517Z" fill="white"/>
</svg>
